<svg t="1776447254640" class="icon" viewBox="0 0 1024 1024" version="1.1" xmlns="http://www.w3.org/2000/svg" p-id="2020" width="200" height="200">
  <path d="M847.5 453.9h-4.6c-16.3 0-29.7-13.4-29.7-29.7v-146c0-16.3 13.4-29.7 29.7-29.7h4.6c16.3 0 29.7 13.4 29.7 29.7v146c0 16.3-13.4 29.7-29.7 29.7z" fill="#E4A059" p-id="2021"></path>
  <path d="M858.1 958.3h-64c0-158.2-128.7-286.9-286.9-286.9S220.3 800.1 220.3 958.3h-64c0-47.4 9.3-93.3 27.6-136.6 17.7-41.8 43-79.3 75.2-111.5s69.7-57.5 111.5-75.2c43.3-18.3 89.2-27.6 136.6-27.6 47.4 0 93.3 9.3 136.6 27.6 41.8 17.7 79.3 43 111.5 75.2s57.5 69.7 75.2 111.5c18.3 43.3 27.6 89.2 27.6 136.6z" fill="#2BB06E" p-id="2022"></path>
  <path d="M665.6 449.3c0 42.3-16.5 82.1-46.4 112-29.9 29.9-69.7 46.4-112 46.4s-82.1-16.5-112-46.4c-29.9-29.9-46.4-69.7-46.4-112 0-36.8 12.5-71.7 35.4-99.9l-62.4-23c-23.4 35.2-37 77.5-37 122.9 0 122.9 99.6 222.4 222.4 222.4s222.4-99.6 222.4-222.4c0-42.4-11.8-81.9-32.4-115.6L634.6 355c20.1 27.1 31 59.9 31 94.3z" fill="#2BB06E" p-id="2023"></path>
  <path d="M906.9 208.7l-386-142.4c-3.2-1.2-6.5-1.8-9.8-1.8-3.1 0-6.2 0.5-9.1 1.5L117.4 197.4c-25.2 8.6-25.4 44.2-0.3 53.4l204.7 75.5c12.8-19.3 28.6-36.5 46.7-51l-135.3-49.9 277.4-94.8L790.8 234l-137.9 47.1c17.4 15.1 32.4 32.8 44.4 52.5l209.4-71.5c25.1-8.6 25.3-44.2 0.2-53.4z" fill="#3382CF" p-id="2024"></path>
  <path d="M444.8 303.5c-18.3 7.8-35.2 19.2-49.7 33.7-3.9 3.9-7.5 7.9-11 12.1L503 393.2c3.2 1.2 6.5 1.8 9.8 1.8 3.1 0 6.2-0.5 9.1-1.5L634.6 355c-4.6-6.2-9.8-12.2-15.4-17.8-12.5-12.5-26.7-22.6-42.1-30.2l-63.8 21.8-68.5-25.3z" fill="#3382CF" p-id="2025"></path>
  <path d="M652.8 281.1L577.1 307c15.4 7.6 29.6 17.7 42.1 30.2 5.6 5.6 10.7 11.5 15.4 17.8l62.6-21.4c-12-19.7-27-37.4-44.4-52.5zM395.1 337.2c14.5-14.5 31.4-25.9 49.7-33.7l-76.3-28.2c-18.1 14.4-33.9 31.7-46.7 51l62.4 23c3.4-4.1 7.1-8.2 10.9-12.1z" fill="#3382CF" p-id="2026"></path>
</svg>
