<svg width="240" height="240" viewBox="0 0 240 240" fill="none" xmlns="http://www.w3.org/2000/svg">
  <rect width="240" height="240" rx="64" fill="url(#bg)"/>
  <circle cx="120" cy="103" r="49" fill="#2F6F73"/>
  <path d="M72 198c8-33 26-51 48-51s40 18 48 51H72Z" fill="#EAF8F4"/>
  <path d="M86 194c8-20 20-31 34-31 15 0 28 11 36 31H86Z" fill="#72B7D8"/>
  <circle cx="120" cy="110" r="34" fill="#F7D8BF"/>
  <path d="M83 108c3-34 20-52 50-52 22 12 33 29 33 51-20-1-41-12-54-30-5 14-14 24-29 31Z" fill="#274F58"/>
  <path d="M97 72c16-20 42-23 66-7-14 5-32 4-52-4-5 3-10 7-14 11Z" fill="#3D777D"/>
  <path d="M105 115c4 4 9 6 15 6s11-2 15-6" stroke="#3F4A50" stroke-width="4" stroke-linecap="round"/>
  <circle cx="104" cy="103" r="4" fill="#2E3D43"/>
  <circle cx="136" cy="103" r="4" fill="#2E3D43"/>
  <path d="M60 63c13-19 33-31 60-31 30 0 52 14 65 37" stroke="#EAF8F4" stroke-width="10" stroke-linecap="round" opacity=".85"/>
  <path d="M139 37c19 5 34 16 46 32" stroke="#8AD7C7" stroke-width="5" stroke-linecap="round"/>
  <defs>
    <linearGradient id="bg" x1="27" y1="23" x2="219" y2="227" gradientUnits="userSpaceOnUse">
      <stop stop-color="#F1FBF8"/>
      <stop offset=".55" stop-color="#D4F1EA"/>
      <stop offset="1" stop-color="#A8D8F0"/>
    </linearGradient>
  </defs>
</svg>
