<svg width="240" height="240" viewBox="0 0 240 240" fill="none" xmlns="http://www.w3.org/2000/svg">
  <rect width="240" height="240" rx="64" fill="url(#bg)"/>
  <circle cx="120" cy="102" r="45" fill="#2F6F73"/>
  <path d="M74 198c8-32 25-50 46-50s38 18 46 50H74Z" fill="#EAF8F4"/>
  <path d="M85 194c8-20 20-31 35-31s27 11 35 31H85Z" fill="#68B7A4"/>
  <circle cx="120" cy="111" r="34" fill="#F7D8BF"/>
  <path d="M86 104c5-31 22-47 51-47 15 8 25 22 29 42-18 2-38-7-51-21-6 13-15 21-29 26Z" fill="#254F57"/>
  <path d="M105 115c3 3 6 4 10 4s7-1 10-4" stroke="#3F4A50" stroke-width="4" stroke-linecap="round"/>
  <circle cx="104" cy="103" r="4" fill="#2E3D43"/>
  <circle cx="136" cy="103" r="4" fill="#2E3D43"/>
  <path d="M60 63c13-19 33-31 60-31 30 0 52 14 65 37" stroke="#EAF8F4" stroke-width="10" stroke-linecap="round" opacity=".85"/>
  <path d="M57 70c10-17 25-29 45-36" stroke="#8AD7C7" stroke-width="5" stroke-linecap="round"/>
  <defs>
    <linearGradient id="bg" x1="27" y1="23" x2="219" y2="227" gradientUnits="userSpaceOnUse">
      <stop stop-color="#F1FBF8"/>
      <stop offset=".55" stop-color="#D4F1EA"/>
      <stop offset="1" stop-color="#A8D8F0"/>
    </linearGradient>
  </defs>
</svg>
